<svg width="24" height="24" viewBox="0 0 24 24" fill="none" xmlns="http://www.w3.org/2000/svg">
<path d="M5 22.002C4.45 22.002 3.97917 21.8061 3.5875 21.4145C3.19583 21.0228 3 20.552 3 20.002V6.00195C3 5.45195 3.19583 4.98112 3.5875 4.58945C3.97917 4.19779 4.45 4.00195 5 4.00195H6V2.00195H8V4.00195H16V2.00195H18V4.00195H19C19.55 4.00195 20.0208 4.19779 20.4125 4.58945C20.8042 4.98112 21 5.45195 21 6.00195V20.002C21 20.552 20.8042 21.0228 20.4125 21.4145C20.0208 21.8061 19.55 22.002 19 22.002H5ZM5 20.002H19V10.002H5V20.002ZM5 8.00195H19V6.00195H5V8.00195ZM8 14.002C7.71667 14.002 7.47917 13.9061 7.2875 13.7145C7.09583 13.5228 7 13.2853 7 13.002C7 12.7186 7.09583 12.4811 7.2875 12.2895C7.47917 12.0978 7.71667 12.002 8 12.002C8.28333 12.002 8.52083 12.0978 8.7125 12.2895C8.90417 12.4811 9 12.7186 9 13.002C9 13.2853 8.90417 13.5228 8.7125 13.7145C8.52083 13.9061 8.28333 14.002 8 14.002Z" fill="#666666"/>
</svg>

