<svg width="24" height="24" viewBox="0 0 24 24" fill="none" xmlns="http://www.w3.org/2000/svg">
<path d="M15.3 16.702L16.7 15.302L13 11.602V7.00195H11V12.402L15.3 16.702ZM12 22.002C10.6167 22.002 9.31667 21.7395 8.1 21.2145C6.88333 20.6895 5.825 19.977 4.925 19.077C4.025 18.177 3.3125 17.1186 2.7875 15.902C2.2625 14.6853 2 13.3853 2 12.002C2 10.6186 2.2625 9.31862 2.7875 8.10195C3.3125 6.88529 4.025 5.82695 4.925 4.92695C5.825 4.02695 6.88333 3.31445 8.1 2.78945C9.31667 2.26445 10.6167 2.00195 12 2.00195C13.3833 2.00195 14.6833 2.26445 15.9 2.78945C17.1167 3.31445 18.175 4.02695 19.075 4.92695C19.975 5.82695 20.6875 6.88529 21.2125 8.10195C21.7375 9.31862 22 10.6186 22 12.002C22 13.3853 21.7375 14.6853 21.2125 15.902C20.6875 17.1186 19.975 18.177 19.075 19.077C18.175 19.977 17.1167 20.6895 15.9 21.2145C14.6833 21.7395 13.3833 22.002 12 22.002ZM12 20.002C14.2167 20.002 16.1042 19.2228 17.6625 17.6645C19.2208 16.1061 20 14.2186 20 12.002C20 9.78529 19.2208 7.89779 17.6625 6.33945C16.1042 4.78112 14.2167 4.00195 12 4.00195C9.78333 4.00195 7.89583 4.78112 6.3375 6.33945C4.77917 7.89779 4 9.78529 4 12.002C4 14.2186 4.77917 16.1061 6.3375 17.6645C7.89583 19.2228 9.78333 20.002 12 20.002Z" fill="#666666"/>
</svg>