<svg width="24" height="24" viewBox="0 0 24 24" fill="none" xmlns="http://www.w3.org/2000/svg">
<path d="M6 18V16.375C6 15.8417 6.14583 15.3542 6.4375 14.9125C6.72917 14.4708 7.14167 14.0833 7.675 13.75C8.20833 13.4167 8.84583 13.1667 9.5875 13C10.3292 12.8333 11.1333 12.75 12 12.75C12.8833 12.75 13.6958 12.8333 14.4375 13C15.1792 13.1667 15.8167 13.4167 16.35 13.75C16.8833 14.0833 17.2917 14.4708 17.575 14.9125C17.8583 15.3542 18 15.8417 18 16.375V18H6ZM8.125 16H15.9C15.7333 15.6667 15.2708 15.375 14.5125 15.125C13.7542 14.875 12.9167 14.75 12 14.75C11.0833 14.75 10.2458 14.875 9.4875 15.125C8.72917 15.375 8.275 15.6667 8.125 16ZM12 12C11.1667 12 10.4583 11.7083 9.875 11.125C9.29167 10.5417 9 9.83333 9 9C9 8.15 9.29167 7.4375 9.875 6.8625C10.4583 6.2875 11.1667 6 12 6C12.85 6 13.5625 6.2875 14.1375 6.8625C14.7125 7.4375 15 8.15 15 9C15 9.83333 14.7125 10.5417 14.1375 11.125C13.5625 11.7083 12.85 12 12 12ZM12 10C12.2833 10 12.5208 9.90417 12.7125 9.7125C12.9042 9.52083 13 9.28333 13 9C13 8.71667 12.9042 8.47917 12.7125 8.2875C12.5208 8.09583 12.2833 8 12 8C11.7167 8 11.4792 8.09583 11.2875 8.2875C11.0958 8.47917 11 8.71667 11 9C11 9.28333 11.0958 9.52083 11.2875 9.7125C11.4792 9.90417 11.7167 10 12 10Z" fill="#666666"/>
</svg>