<svg xmlns="http://www.w3.org/2000/svg" version="1.1" xmlns:xlink="http://www.w3.org/1999/xlink" width="512" height="512" x="0" y="0" viewBox="0 0 32 32" style="enable-background:new 0 0 512 512" xml:space="preserve" class=""><g><g data-name="62-Stopwatch"><path d="m25.15 10.26 1.56-1.55a1 1 0 1 0-1.42-1.42l-1.55 1.56A11.9 11.9 0 0 0 17 6.05V4h2a1 1 0 0 0 0-2h-6a1 1 0 0 0 0 2h2v2.05a12 12 0 1 0 10.15 4.21zM16 28a10 10 0 1 1 10-10 10 10 0 0 1-10 10z" fill="#666666" opacity="1" data-original="#666666" class=""></path><path d="M17 17.59V12a1 1 0 0 0-2 0v6a1 1 0 0 0 .29.71l3 3a1 1 0 0 0 1.42 0 1 1 0 0 0 0-1.42z" fill="#666666" opacity="1" data-original="#666666" class=""></path></g></g></svg>