<?xml version="1.0" encoding="UTF-8" standalone="no"?>
<svg
   width="1366"
   height="652"
   viewBox="0 0 1366 652"
   fill="none"
   version="1.1"
   id="svg7"
   sodipodi:docname="default-block-cover-redesign.svg"
   inkscape:version="1.3.2 (091e20ef0f, 2023-11-25, custom)"
   xmlns:inkscape="http://www.inkscape.org/namespaces/inkscape"
   xmlns:sodipodi="http://sodipodi.sourceforge.net/DTD/sodipodi-0.dtd"
   xmlns="http://www.w3.org/2000/svg"
   xmlns:svg="http://www.w3.org/2000/svg">
  <sodipodi:namedview
     id="namedview7"
     pagecolor="#ffffff"
     bordercolor="#000000"
     borderopacity="0.25"
     inkscape:showpageshadow="2"
     inkscape:pageopacity="0.0"
     inkscape:pagecheckerboard="0"
     inkscape:deskcolor="#d1d1d1"
     inkscape:zoom="0.98197772"
     inkscape:cx="716.41137"
     inkscape:cy="218.9459"
     inkscape:window-width="2560"
     inkscape:window-height="1371"
     inkscape:window-x="0"
     inkscape:window-y="0"
     inkscape:window-maximized="1"
     inkscape:current-layer="g6" />
  <g
     clip-path="url(#clip0)"
     id="g6">
    <rect
       width="1366"
       height="652"
       fill="#1E232F"
       id="rect1" />
    <mask
       id="mask0"
       mask-type="alpha"
       maskUnits="userSpaceOnUse"
       x="52"
       y="-269"
       width="1324"
       height="1436">
      <path
         d="M1364.83 40.2451C980.637 139.153 639.856 314.136 366.184 609.308C435.208 684.323 514.149 707.334 607.823 724.892C809.007 516.576 1055.62 384.262 1333.32 303.936C1401.55 284.172 1367.13 101.831 1364.83 40.2451Z"
         fill="#1E232F"
         id="path1" />
      <path
         d="M358.323 51.0961C65.5661 216.262 -34.7523 582.192 134.253 868.25C221.522 1015.94 363.568 1113.51 520.812 1150.6C995.284 1262.29 1391.8 767.772 1375.02 333.865C1105.45 412.093 871.157 540.139 679.47 728.308C1242.64 823.153 735.036 1211.23 374.237 972.926C115.439 801.987 85.2395 481.259 232.298 241.294C322.645 93.8482 449.118 37.5742 601.654 -26.0117C518.377 -17.6852 435.495 7.53926 358.323 51.0961V51.0961Z"
         fill="#1E232F"
         id="path2" />
      <path
         d="M1362.25 -268.95C846.084 -112.544 288.306 28.9964 256.148 358.14C249.001 407.048 259.507 460.422 294.19 519.362C305.3 538.224 316.642 555.096 328.267 570.294C593.353 275.558 932.087 100.587 1334.52 -0.107317C1404.11 -17.5207 1364.59 -208.073 1362.25 -268.95Z"
         fill="#1E232F"
         id="path3" />
    </mask>
    <g
       mask="url(#mask0)"
       id="g3">
      <rect
         width="1366"
         height="652"
         fill="#1E232F"
         id="rect3" />
    </g>
    <rect
       x="-2"
       y="-1"
       width="1370"
       height="655"
       fill="url(#paint0_linear)"
       id="rect6" />
    <path
       id="path2403"
       d="m 2126.3514,-189.52358 c -205.8529,22.1265 -412.0355,41.08475 -617.2736,67.51318 v 0 C 1242.5664,-87.732365 977.23714,-45.985575 720.08864,36.043538 v 0 C 602.36352,73.53525 488.28002,118.73469 388.56849,193.52906 v 0 c -120.51366,90.44535 -158.19576,209.72892 -97.63115,335.0661 v 0 C 380.81426,714.68454 476.88558,897.7488 569.83576,1082.372 v 0 c 9.22081,18.3916 18.39159,19.1486 35.08083,8.5102 v 0 c 76.26098,-48.6971 146.80025,-104.86454 203.58275,-174.7417 v 0 c 31.5831,-38.81617 55.1745,-85.38639 75.3628,-131.53052 v 0 c 10.7349,-24.63236 6.4731,-55.83612 9.4084,-88.60109 v 0 c -35.3652,16.21762 -61.6514,31.39414 -89.8305,40.70823 v 0 c -98.90695,32.81073 -181.54986,-23.0258 -186.656,-126.61304 v 0 c -5.25363,-106.04632 48.64892,-182.16649 133.184,-237.52961 v 0 c 76.829,-50.3992 165.524,-73.99195 253.08406,-97.82053 v 0 c 138.7163,-37.63386 279.3705,-68.74219 410.3336,-130.39505 v 0 c 4.5834,-2.1701 10.4536,-1.70203 16.6896,-2.59915 v 0 c 1.0709,5.1462 2.6947,8.75131 2.5457,12.28944 v 0 c -1.6487,70.25667 -31.4408,127.3704 -90.4439,164.01108 v 0 c -58.3427,36.26266 -122.1692,63.73146 -181.6465,98.43427 v 0 c -29.5968,17.20943 -60.4225,37.58673 -80.7047,64.11055 v 0 c -38.5323,50.39917 -8.2691,109.11956 54.7024,109.49755 v 0 c 37.3968,0.53545 75.0788,-6.04436 112.2865,-12.00823 v 0 c 27.1855,-4.39589 34.3247,-2.1701 29.3606,25.34159 v 0 c -8.939,48.93295 -18.2022,98.52828 -34.7497,145.24039 v 0 c -17.4936,49.21696 -43.6862,95.40824 -66.0485,142.92456 v 0 c 191.2423,-0.53544 715.8486,-311.23751 787.4295,-467.73018 v 0 c -8.9794,2.50696 -16.9256,4.86501 -24.9637,6.90214 v 0 c -57.3496,14.13615 -114.9349,21.55952 -173.9861,9.26051 v 0 c -82.7848,-17.25764 -119.001,-87.89228 -80.28,-162.45086 v 0 c 34.9401,-67.2774 94.5583,-108.97738 159.331,-144.34258 v 0 C 1955.4314,71.63567 2062.896,3.033889 2146.2956,-96.535467 v 0 c 25.011,-29.880723 46.2396,-62.880083 69.2171,-94.416043 v 0 c -1.8508,-2.2233 -3.6855,-4.48985 -5.5352,-6.71457 v 0 c -27.8946,2.64172 -55.7892,5.10611 -83.6355,8.13504"
       style="fill:#ffffff;fill-opacity:0.05;stroke:none;stroke-width:47.2788" />
  </g>
  <defs
     id="defs7">
    <linearGradient
       id="paint0_linear"
       x1="1368"
       y1="-1.00007"
       x2="-1011.7"
       y2="1602.8"
       gradientUnits="userSpaceOnUse">
      <stop
         stop-color="#5977A5"
         stop-opacity="0.65"
         id="stop6" />
      <stop
         offset="1"
         stop-color="#0F1017"
         id="stop7" />
    </linearGradient>
    <clipPath
       id="clip0">
      <rect
         width="1366"
         height="652"
         fill="white"
         id="rect7" />
    </clipPath>
    <linearGradient
       x1="0"
       y1="0"
       x2="1"
       y2="0"
       gradientUnits="userSpaceOnUse"
       gradientTransform="matrix(2135.2776,-2928.3809,2928.3809,2135.2776,-1164.6981,2758.2511)"
       spreadMethod="pad"
       id="linearGradient2403-5">
      <stop
         style="stop-color:#ffffff;stop-opacity:1;"
         offset="0"
         id="stop2400-6" />
      <stop
         style="stop-opacity:1;stop-color:#f76426"
         offset="0.0042106"
         id="stop2401-2" />
      <stop
         style="stop-opacity:1;stop-color:#f28157"
         offset="0.73430965"
         id="stop2402-9" />
      <stop
         style="stop-opacity:1;stop-color:#f28157"
         offset="1"
         id="stop2403-1" />
    </linearGradient>
  </defs>
</svg>

